<svg xmlns="http://www.w3.org/2000/svg" width="805" height="600"><rect width="805" height="600" x="0" y="0" fill="#FFFFFF" id="background"/><g id="viz"><g transform="translate(0,0)"><g transform="translate(50,20)"><g id="Sem 01" fill="rgb(158, 1, 66)"><rect x="0.9986595174262902" y="557.2" width="105.28724626579853" height="2.7999999999999545"/><rect x="107.2845653006511" y="560" width="105.28724626579853" height="0"/><rect x="213.5704710838759" y="533.8666666666667" width="105.28724626579853" height="26.133333333333326"/><rect x="319.8563768671007" y="557.2" width="105.28724626579853" height="2.7999999999999545"/><rect x="426.1422826503255" y="560" width="105.28724626579853" height="0"/><rect x="532.4281884335503" y="555.3333333333334" width="105.28724626579853" height="4.666666666666629"/><rect x="638.7140942167752" y="551.6" width="105.28724626579853" height="8.399999999999977"/></g><g id="Sem 02" fill="rgb(169, 13, 69)"><rect x="0.9986595174262902" y="548.8" width="105.28724626579853" height="8.399999999999977"/><rect x="107.2845653006511" y="559.0666666666666" width="105.28724626579853" height="0.933333333333394"/><rect x="213.5704710838759" y="531.0666666666667" width="105.28724626579853" height="2.7999999999999545"/><rect x="319.8563768671007" y="553.4666666666667" width="105.28724626579853" height="3.7333333333333485"/><rect x="426.1422826503255" y="490" width="105.28724626579853" height="70"/><rect x="532.4281884335503" y="532" width="105.28724626579853" height="23.333333333333258"/><rect x="638.7140942167752" y="533.8666666666667" width="105.28724626579853" height="17.73333333333335"/></g><g id="Sem 03" fill="rgb(179, 25, 71)"><rect x="0.9986595174262902" y="546" width="105.28724626579853" height="2.7999999999999545"/><rect x="107.2845653006511" y="559.0666666666666" width="105.28724626579853" height="0"/><rect x="213.5704710838759" y="531.0666666666667" width="105.28724626579853" height="0"/><rect x="319.8563768671007" y="543.1999999999999" width="105.28724626579853" height="10.266666666666652"/><rect x="426.1422826503255" y="487.2" width="105.28724626579853" height="2.7999999999999545"/><rect x="532.4281884335503" y="524.5333333333333" width="105.28724626579853" height="7.466666666666697"/><rect x="638.7140942167752" y="491.8666666666667" width="105.28724626579853" height="42"/></g><g id="Sem 04" fill="rgb(190, 36, 73)"><rect x="0.9986595174262902" y="539.4666666666667" width="105.28724626579853" height="6.533333333333303"/><rect x="107.2845653006511" y="552.5333333333333" width="105.28724626579853" height="6.533333333333303"/><rect x="213.5704710838759" y="526.4" width="105.28724626579853" height="4.666666666666629"/><rect x="319.8563768671007" y="535.7333333333333" width="105.28724626579853" height="7.466666666666697"/><rect x="426.1422826503255" y="477.8666666666666" width="105.28724626579853" height="9.333333333333371"/><rect x="532.4281884335503" y="500.26666666666665" width="105.28724626579853" height="24.26666666666665"/><rect x="638.7140942167752" y="490" width="105.28724626579853" height="1.8666666666666742"/></g><g id="Sem 05" fill="rgb(199, 48, 74)"><rect x="0.9986595174262902" y="538.5333333333333" width="105.28724626579853" height="0.933333333333394"/><rect x="107.2845653006511" y="546.9333333333334" width="105.28724626579853" height="5.600000000000023"/><rect x="213.5704710838759" y="526.4" width="105.28724626579853" height="0"/><rect x="319.8563768671007" y="535.7333333333333" width="105.28724626579853" height="0"/><rect x="426.1422826503255" y="475.0666666666667" width="105.28724626579853" height="2.7999999999999545"/><rect x="532.4281884335503" y="494.66666666666663" width="105.28724626579853" height="5.600000000000023"/><rect x="638.7140942167752" y="481.59999999999997" width="105.28724626579853" height="8.399999999999977"/></g><g id="Sem 06" fill="rgb(208, 59, 75)"><rect x="0.9986595174262902" y="535.7333333333333" width="105.28724626579853" height="2.7999999999999545"/><rect x="107.2845653006511" y="546.9333333333334" width="105.28724626579853" height="0"/><rect x="213.5704710838759" y="514.2666666666667" width="105.28724626579853" height="12.133333333333326"/><rect x="319.8563768671007" y="532" width="105.28724626579853" height="3.7333333333333485"/><rect x="426.1422826503255" y="463.8666666666667" width="105.28724626579853" height="11.200000000000045"/><rect x="532.4281884335503" y="491.8666666666667" width="105.28724626579853" height="2.7999999999999545"/><rect x="638.7140942167752" y="479.73333333333335" width="105.28724626579853" height="1.8666666666666742"/></g><g id="Sem 07" fill="rgb(216, 69, 75)"><rect x="0.9986595174262902" y="535.7333333333333" width="105.28724626579853" height="0"/><rect x="107.2845653006511" y="546.9333333333334" width="105.28724626579853" height="0"/><rect x="213.5704710838759" y="504.9333333333333" width="105.28724626579853" height="9.333333333333371"/><rect x="319.8563768671007" y="528.2666666666667" width="105.28724626579853" height="3.7333333333333485"/><rect x="426.1422826503255" y="442.40000000000003" width="105.28724626579853" height="21.466666666666697"/><rect x="532.4281884335503" y="426.53333333333336" width="105.28724626579853" height="65.33333333333337"/><rect x="638.7140942167752" y="387.3333333333333" width="105.28724626579853" height="92.40000000000003"/></g><g id="Sem 08" fill="rgb(223, 79, 74)"><rect x="0.9986595174262902" y="518.9333333333333" width="105.28724626579853" height="16.800000000000068"/><rect x="107.2845653006511" y="544.1333333333333" width="105.28724626579853" height="2.7999999999999545"/><rect x="213.5704710838759" y="504" width="105.28724626579853" height="0.933333333333394"/><rect x="319.8563768671007" y="528.2666666666667" width="105.28724626579853" height="0"/><rect x="426.1422826503255" y="441.46666666666664" width="105.28724626579853" height="0.933333333333394"/><rect x="532.4281884335503" y="421.8666666666667" width="105.28724626579853" height="4.666666666666629"/><rect x="638.7140942167752" y="382.6666666666667" width="105.28724626579853" height="4.666666666666629"/></g><g id="Sem 09" fill="rgb(230, 89, 73)"><rect x="0.9986595174262902" y="518.9333333333333" width="105.28724626579853" height="0"/><rect x="107.2845653006511" y="544.1333333333333" width="105.28724626579853" height="0"/><rect x="213.5704710838759" y="504" width="105.28724626579853" height="0"/><rect x="319.8563768671007" y="528.2666666666667" width="105.28724626579853" height="0"/><rect x="426.1422826503255" y="435.8666666666667" width="105.28724626579853" height="5.600000000000023"/><rect x="532.4281884335503" y="332.26666666666665" width="105.28724626579853" height="89.60000000000002"/><rect x="638.7140942167752" y="232.40000000000003" width="105.28724626579853" height="150.26666666666665"/></g><g id="Sem 10" fill="rgb(235, 99, 73)"><rect x="0.9986595174262902" y="452.6666666666667" width="105.28724626579853" height="66.26666666666665"/><rect x="107.2845653006511" y="542.2666666666667" width="105.28724626579853" height="1.8666666666666742"/><rect x="213.5704710838759" y="500.26666666666665" width="105.28724626579853" height="3.7333333333333485"/><rect x="319.8563768671007" y="527.3333333333334" width="105.28724626579853" height="0.933333333333394"/><rect x="426.1422826503255" y="434.9333333333333" width="105.28724626579853" height="0.933333333333394"/><rect x="532.4281884335503" y="331.3333333333333" width="105.28724626579853" height="0.933333333333394"/><rect x="638.7140942167752" y="232.40000000000003" width="105.28724626579853" height="0"/></g><g id="Sem 11" fill="rgb(240, 110, 74)"><rect x="0.9986595174262902" y="452.6666666666667" width="105.28724626579853" height="0"/><rect x="107.2845653006511" y="540.4" width="105.28724626579853" height="1.8666666666666742"/><rect x="213.5704710838759" y="500.26666666666665" width="105.28724626579853" height="0"/><rect x="319.8563768671007" y="525.4666666666667" width="105.28724626579853" height="1.8666666666666742"/><rect x="426.1422826503255" y="434.9333333333333" width="105.28724626579853" height="0"/><rect x="532.4281884335503" y="324.80000000000007" width="105.28724626579853" height="6.533333333333303"/><rect x="638.7140942167752" y="212.8" width="105.28724626579853" height="19.600000000000023"/></g><g id="Sem 12" fill="rgb(243, 121, 76)"><rect x="0.9986595174262902" y="452.6666666666667" width="105.28724626579853" height="0"/><rect x="107.2845653006511" y="540.4" width="105.28724626579853" height="0"/><rect x="213.5704710838759" y="494.66666666666663" width="105.28724626579853" height="5.600000000000023"/><rect x="319.8563768671007" y="524.5333333333333" width="105.28724626579853" height="0.933333333333394"/><rect x="426.1422826503255" y="433.06666666666666" width="105.28724626579853" height="1.8666666666666742"/><rect x="532.4281884335503" y="322.93333333333334" width="105.28724626579853" height="1.8666666666666742"/><rect x="638.7140942167752" y="211.86666666666665" width="105.28724626579853" height="0.933333333333394"/></g><g id="Sem 13" fill="rgb(246, 133, 80)"><rect x="0.9986595174262902" y="450.79999999999995" width="105.28724626579853" height="1.8666666666666742"/><rect x="107.2845653006511" y="540.4" width="105.28724626579853" height="0"/><rect x="213.5704710838759" y="494.66666666666663" width="105.28724626579853" height="0"/><rect x="319.8563768671007" y="520.8" width="105.28724626579853" height="3.7333333333333485"/><rect x="426.1422826503255" y="422.8" width="105.28724626579853" height="10.266666666666652"/><rect x="532.4281884335503" y="286.53333333333336" width="105.28724626579853" height="36.39999999999998"/><rect x="638.7140942167752" y="193.2" width="105.28724626579853" height="18.66666666666663"/></g><g id="Sem 14" fill="rgb(248, 145, 84)"><rect x="0.9986595174262902" y="441.46666666666664" width="105.28724626579853" height="9.333333333333371"/><rect x="107.2845653006511" y="540.4" width="105.28724626579853" height="0"/><rect x="213.5704710838759" y="488.1333333333333" width="105.28724626579853" height="6.533333333333303"/><rect x="319.8563768671007" y="519.8666666666667" width="105.28724626579853" height="0.933333333333394"/><rect x="426.1422826503255" y="411.59999999999997" width="105.28724626579853" height="11.200000000000045"/><rect x="532.4281884335503" y="283.7333333333333" width="105.28724626579853" height="2.7999999999999545"/><rect x="638.7140942167752" y="190.39999999999998" width="105.28724626579853" height="2.7999999999999545"/></g><g id="Sem 53" fill="rgb(94, 79, 162)"><rect x="0.9986595174262902" y="441.46666666666664" width="105.28724626579853" height="0"/><rect x="107.2845653006511" y="540.4" width="105.28724626579853" height="0"/><rect x="213.5704710838759" y="488.1333333333333" width="105.28724626579853" height="0"/><rect x="319.8563768671007" y="519.8666666666667" width="105.28724626579853" height="0"/><rect x="426.1422826503255" y="400.40000000000003" width="105.28724626579853" height="11.200000000000045"/><rect x="532.4281884335503" y="283.7333333333333" width="105.28724626579853" height="0"/><rect x="638.7140942167752" y="190.39999999999998" width="105.28724626579853" height="0"/></g><g id="Sem 52" fill="rgb(85, 90, 167)"><rect x="0.9986595174262902" y="441.46666666666664" width="105.28724626579853" height="0"/><rect x="107.2845653006511" y="539.4666666666667" width="105.28724626579853" height="0.933333333333394"/><rect x="213.5704710838759" y="487.2" width="105.28724626579853" height="0.933333333333394"/><rect x="319.8563768671007" y="501.2" width="105.28724626579853" height="18.66666666666663"/><rect x="426.1422826503255" y="392" width="105.28724626579853" height="8.399999999999977"/><rect x="532.4281884335503" y="280.93333333333334" width="105.28724626579853" height="2.7999999999999545"/><rect x="638.7140942167752" y="189.4666666666667" width="105.28724626579853" height="0.933333333333394"/></g><g id="Sem 51" fill="rgb(78, 101, 172)"><rect x="0.9986595174262902" y="441.46666666666664" width="105.28724626579853" height="0"/><rect x="107.2845653006511" y="538.5333333333333" width="105.28724626579853" height="0.933333333333394"/><rect x="213.5704710838759" y="487.2" width="105.28724626579853" height="0"/><rect x="319.8563768671007" y="500.26666666666665" width="105.28724626579853" height="0.933333333333394"/><rect x="426.1422826503255" y="392" width="105.28724626579853" height="0"/><rect x="532.4281884335503" y="280.93333333333334" width="105.28724626579853" height="0"/><rect x="638.7140942167752" y="189.4666666666667" width="105.28724626579853" height="0"/></g><g id="Sem 50" fill="rgb(71, 113, 176)"><rect x="0.9986595174262902" y="441.46666666666664" width="105.28724626579853" height="0"/><rect x="107.2845653006511" y="538.5333333333333" width="105.28724626579853" height="0"/><rect x="213.5704710838759" y="487.2" width="105.28724626579853" height="0"/><rect x="319.8563768671007" y="500.26666666666665" width="105.28724626579853" height="0"/><rect x="426.1422826503255" y="392" width="105.28724626579853" height="0"/><rect x="532.4281884335503" y="280.93333333333334" width="105.28724626579853" height="0"/><rect x="638.7140942167752" y="188.53333333333333" width="105.28724626579853" height="0.933333333333394"/></g><g id="Sem 49" fill="rgb(67, 124, 179)"><rect x="0.9986595174262902" y="441.46666666666664" width="105.28724626579853" height="0"/><rect x="107.2845653006511" y="538.5333333333333" width="105.28724626579853" height="0"/><rect x="213.5704710838759" y="487.2" width="105.28724626579853" height="0"/><rect x="319.8563768671007" y="498.40000000000003" width="105.28724626579853" height="1.8666666666666742"/><rect x="426.1422826503255" y="392" width="105.28724626579853" height="0"/><rect x="532.4281884335503" y="280.93333333333334" width="105.28724626579853" height="0"/><rect x="638.7140942167752" y="188.53333333333333" width="105.28724626579853" height="0"/></g><g id="Sem 48" fill="rgb(66, 135, 180)"><rect x="0.9986595174262902" y="441.46666666666664" width="105.28724626579853" height="0"/><rect x="107.2845653006511" y="538.5333333333333" width="105.28724626579853" height="0"/><rect x="213.5704710838759" y="487.2" width="105.28724626579853" height="0"/><rect x="319.8563768671007" y="498.40000000000003" width="105.28724626579853" height="0"/><rect x="426.1422826503255" y="391.0666666666666" width="105.28724626579853" height="0.933333333333394"/><rect x="532.4281884335503" y="280.93333333333334" width="105.28724626579853" height="0"/><rect x="638.7140942167752" y="187.59999999999997" width="105.28724626579853" height="0.933333333333394"/></g><g id="Sem 47" fill="rgb(68, 146, 180)"><rect x="0.9986595174262902" y="438.6666666666667" width="105.28724626579853" height="2.7999999999999545"/><rect x="107.2845653006511" y="538.5333333333333" width="105.28724626579853" height="0"/><rect x="213.5704710838759" y="487.2" width="105.28724626579853" height="0"/><rect x="319.8563768671007" y="497.46666666666664" width="105.28724626579853" height="0.933333333333394"/><rect x="426.1422826503255" y="379.8666666666667" width="105.28724626579853" height="11.200000000000045"/><rect x="532.4281884335503" y="278.1333333333333" width="105.28724626579853" height="2.7999999999999545"/><rect x="638.7140942167752" y="184.79999999999998" width="105.28724626579853" height="2.7999999999999545"/></g><g id="Sem 46" fill="rgb(73, 157, 178)"><rect x="0.9986595174262902" y="436.8" width="105.28724626579853" height="1.8666666666666742"/><rect x="107.2845653006511" y="533.8666666666667" width="105.28724626579853" height="4.666666666666629"/><rect x="213.5704710838759" y="486.2666666666667" width="105.28724626579853" height="0.933333333333394"/><rect x="319.8563768671007" y="483.46666666666664" width="105.28724626579853" height="14"/><rect x="426.1422826503255" y="379.8666666666667" width="105.28724626579853" height="0"/><rect x="532.4281884335503" y="278.1333333333333" width="105.28724626579853" height="0"/><rect x="638.7140942167752" y="182.93333333333334" width="105.28724626579853" height="1.8666666666666742"/></g><g id="Sem 45" fill="rgb(81, 168, 175)"><rect x="0.9986595174262902" y="436.8" width="105.28724626579853" height="0"/><rect x="107.2845653006511" y="532" width="105.28724626579853" height="1.8666666666666742"/><rect x="213.5704710838759" y="483.46666666666664" width="105.28724626579853" height="2.7999999999999545"/><rect x="319.8563768671007" y="482.53333333333336" width="105.28724626579853" height="0.933333333333394"/><rect x="426.1422826503255" y="379.8666666666667" width="105.28724626579853" height="0"/><rect x="532.4281884335503" y="278.1333333333333" width="105.28724626579853" height="0"/><rect x="638.7140942167752" y="181.0666666666667" width="105.28724626579853" height="1.8666666666666742"/></g><g id="Sem 44" fill="rgb(91, 178, 172)"><rect x="0.9986595174262902" y="436.8" width="105.28724626579853" height="0"/><rect x="107.2845653006511" y="531.0666666666667" width="105.28724626579853" height="0.933333333333394"/><rect x="213.5704710838759" y="482.53333333333336" width="105.28724626579853" height="0.933333333333394"/><rect x="319.8563768671007" y="479.73333333333335" width="105.28724626579853" height="2.7999999999999545"/><rect x="426.1422826503255" y="378.9333333333334" width="105.28724626579853" height="0.933333333333394"/><rect x="532.4281884335503" y="242.66666666666669" width="105.28724626579853" height="35.4666666666667"/><rect x="638.7140942167752" y="168.9333333333333" width="105.28724626579853" height="12.133333333333326"/></g><g id="Sem 43" fill="rgb(102, 187, 169)"><rect x="0.9986595174262902" y="434.9333333333333" width="105.28724626579853" height="1.8666666666666742"/><rect x="107.2845653006511" y="530.1333333333333" width="105.28724626579853" height="0.933333333333394"/><rect x="213.5704710838759" y="482.53333333333336" width="105.28724626579853" height="0"/><rect x="319.8563768671007" y="479.73333333333335" width="105.28724626579853" height="0"/><rect x="426.1422826503255" y="378.9333333333334" width="105.28724626579853" height="0"/><rect x="532.4281884335503" y="242.66666666666669" width="105.28724626579853" height="0"/><rect x="638.7140942167752" y="168.00000000000003" width="105.28724626579853" height="0.933333333333394"/></g><g id="Sem 42" fill="rgb(115, 195, 167)"><rect x="0.9986595174262902" y="434" width="105.28724626579853" height="0.933333333333394"/><rect x="107.2845653006511" y="528.2666666666667" width="105.28724626579853" height="1.8666666666666742"/><rect x="213.5704710838759" y="474.1333333333333" width="105.28724626579853" height="8.399999999999977"/><rect x="319.8563768671007" y="476.93333333333334" width="105.28724626579853" height="2.7999999999999545"/><rect x="426.1422826503255" y="376.1333333333333" width="105.28724626579853" height="2.7999999999999545"/><rect x="532.4281884335503" y="229.60000000000002" width="105.28724626579853" height="13.066666666666606"/><rect x="638.7140942167752" y="147.46666666666664" width="105.28724626579853" height="20.533333333333303"/></g><g id="Sem 41" fill="rgb(127, 202, 166)"><rect x="0.9986595174262902" y="425.6" width="105.28724626579853" height="8.399999999999977"/><rect x="107.2845653006511" y="526.4" width="105.28724626579853" height="1.8666666666666742"/><rect x="213.5704710838759" y="470.4" width="105.28724626579853" height="3.7333333333333485"/><rect x="319.8563768671007" y="472.26666666666665" width="105.28724626579853" height="4.666666666666629"/><rect x="426.1422826503255" y="376.1333333333333" width="105.28724626579853" height="0"/><rect x="532.4281884335503" y="228.66666666666666" width="105.28724626579853" height="0.933333333333394"/><rect x="638.7140942167752" y="141.86666666666665" width="105.28724626579853" height="5.600000000000023"/></g><g id="Sem 40" fill="rgb(140, 208, 164)"><rect x="0.9986595174262902" y="409.73333333333335" width="105.28724626579853" height="15.866666666666674"/><rect x="107.2845653006511" y="524.5333333333333" width="105.28724626579853" height="1.8666666666666742"/><rect x="213.5704710838759" y="469.4666666666667" width="105.28724626579853" height="0.933333333333394"/><rect x="319.8563768671007" y="472.26666666666665" width="105.28724626579853" height="0"/><rect x="426.1422826503255" y="368.6666666666667" width="105.28724626579853" height="7.466666666666697"/><rect x="532.4281884335503" y="224" width="105.28724626579853" height="4.666666666666629"/><rect x="638.7140942167752" y="140.93333333333337" width="105.28724626579853" height="0.933333333333394"/></g><g id="Sem 39" fill="rgb(153, 214, 164)"><rect x="0.9986595174262902" y="406.93333333333334" width="105.28724626579853" height="2.7999999999999545"/><rect x="107.2845653006511" y="524.5333333333333" width="105.28724626579853" height="0"/><rect x="213.5704710838759" y="469.4666666666667" width="105.28724626579853" height="0"/><rect x="319.8563768671007" y="470.4" width="105.28724626579853" height="1.8666666666666742"/><rect x="426.1422826503255" y="367.73333333333335" width="105.28724626579853" height="0.933333333333394"/><rect x="532.4281884335503" y="223.06666666666666" width="105.28724626579853" height="0.933333333333394"/><rect x="638.7140942167752" y="139.06666666666663" width="105.28724626579853" height="1.8666666666666742"/></g><g id="Sem 15" fill="rgb(250, 156, 90)"><rect x="0.9986595174262902" y="406.93333333333334" width="105.28724626579853" height="0"/><rect x="107.2845653006511" y="523.6" width="105.28724626579853" height="0.933333333333394"/><rect x="213.5704710838759" y="466.6666666666667" width="105.28724626579853" height="2.7999999999999545"/><rect x="319.8563768671007" y="466.6666666666667" width="105.28724626579853" height="3.7333333333333485"/><rect x="426.1422826503255" y="362.1333333333334" width="105.28724626579853" height="5.600000000000023"/><rect x="532.4281884335503" y="222.1333333333333" width="105.28724626579853" height="0.933333333333394"/><rect x="638.7140942167752" y="126.93333333333334" width="105.28724626579853" height="12.133333333333326"/></g><g id="Sem 16" fill="rgb(251, 168, 97)"><rect x="0.9986595174262902" y="406.93333333333334" width="105.28724626579853" height="0"/><rect x="107.2845653006511" y="523.6" width="105.28724626579853" height="0"/><rect x="213.5704710838759" y="464.79999999999995" width="105.28724626579853" height="1.8666666666666742"/><rect x="319.8563768671007" y="318.26666666666665" width="105.28724626579853" height="148.40000000000003"/><rect x="426.1422826503255" y="315.4666666666667" width="105.28724626579853" height="46.66666666666674"/><rect x="532.4281884335503" y="115.73333333333333" width="105.28724626579853" height="106.39999999999998"/><rect x="638.7140942167752" y="93.33333333333331" width="105.28724626579853" height="33.60000000000002"/></g><g id="Sem 17" fill="rgb(252, 179, 104)"><rect x="0.9986595174262902" y="395.73333333333335" width="105.28724626579853" height="11.200000000000045"/><rect x="107.2845653006511" y="519.8666666666667" width="105.28724626579853" height="3.7333333333333485"/><rect x="213.5704710838759" y="464.79999999999995" width="105.28724626579853" height="0"/><rect x="319.8563768671007" y="318.26666666666665" width="105.28724626579853" height="0"/><rect x="426.1422826503255" y="315.4666666666667" width="105.28724626579853" height="0"/><rect x="532.4281884335503" y="90.5333333333333" width="105.28724626579853" height="25.200000000000045"/><rect x="638.7140942167752" y="86.80000000000001" width="105.28724626579853" height="6.533333333333303"/></g><g id="Sem 18" fill="rgb(253, 190, 112)"><rect x="0.9986595174262902" y="395.73333333333335" width="105.28724626579853" height="0"/><rect x="107.2845653006511" y="518" width="105.28724626579853" height="1.8666666666666742"/><rect x="213.5704710838759" y="459.20000000000005" width="105.28724626579853" height="5.600000000000023"/><rect x="319.8563768671007" y="315.4666666666667" width="105.28724626579853" height="2.7999999999999545"/><rect x="426.1422826503255" y="309.8666666666667" width="105.28724626579853" height="5.600000000000023"/><rect x="532.4281884335503" y="88.66666666666666" width="105.28724626579853" height="1.8666666666666742"/><rect x="638.7140942167752" y="76.53333333333336" width="105.28724626579853" height="10.266666666666652"/></g><g id="Sem 19" fill="rgb(253, 200, 120)"><rect x="0.9986595174262902" y="394.80000000000007" width="105.28724626579853" height="0.933333333333394"/><rect x="107.2845653006511" y="516.1333333333333" width="105.28724626579853" height="1.8666666666666742"/><rect x="213.5704710838759" y="452.6666666666667" width="105.28724626579853" height="6.533333333333303"/><rect x="319.8563768671007" y="313.6" width="105.28724626579853" height="1.8666666666666742"/><rect x="426.1422826503255" y="287.46666666666664" width="105.28724626579853" height="22.399999999999977"/><rect x="532.4281884335503" y="82.1333333333333" width="105.28724626579853" height="6.533333333333303"/><rect x="638.7140942167752" y="71.86666666666665" width="105.28724626579853" height="4.666666666666629"/></g><g id="Sem 20" fill="rgb(254, 209, 128)"><rect x="0.9986595174262902" y="388.26666666666665" width="105.28724626579853" height="6.533333333333303"/><rect x="107.2845653006511" y="504.9333333333333" width="105.28724626579853" height="11.200000000000045"/><rect x="213.5704710838759" y="452.6666666666667" width="105.28724626579853" height="0"/><rect x="319.8563768671007" y="311.73333333333335" width="105.28724626579853" height="1.8666666666666742"/><rect x="426.1422826503255" y="286.53333333333336" width="105.28724626579853" height="0.933333333333394"/><rect x="532.4281884335503" y="73.73333333333336" width="105.28724626579853" height="8.399999999999977"/><rect x="638.7140942167752" y="70" width="105.28724626579853" height="1.8666666666666742"/></g><g id="Sem 21" fill="rgb(254, 218, 137)"><rect x="0.9986595174262902" y="381.73333333333335" width="105.28724626579853" height="6.533333333333303"/><rect x="107.2845653006511" y="491.8666666666667" width="105.28724626579853" height="13.066666666666606"/><rect x="213.5704710838759" y="451.73333333333335" width="105.28724626579853" height="0.933333333333394"/><rect x="319.8563768671007" y="288.40000000000003" width="105.28724626579853" height="23.333333333333258"/><rect x="426.1422826503255" y="283.7333333333333" width="105.28724626579853" height="2.7999999999999545"/><rect x="532.4281884335503" y="73.73333333333336" width="105.28724626579853" height="0"/><rect x="638.7140942167752" y="67.2" width="105.28724626579853" height="2.7999999999999545"/></g><g id="Sem 22" fill="rgb(254, 225, 146)"><rect x="0.9986595174262902" y="378.9333333333334" width="105.28724626579853" height="2.7999999999999545"/><rect x="107.2845653006511" y="489.06666666666666" width="105.28724626579853" height="2.7999999999999545"/><rect x="213.5704710838759" y="445.20000000000005" width="105.28724626579853" height="6.533333333333303"/><rect x="319.8563768671007" y="286.53333333333336" width="105.28724626579853" height="1.8666666666666742"/><rect x="426.1422826503255" y="279.06666666666666" width="105.28724626579853" height="4.666666666666629"/><rect x="532.4281884335503" y="70.93333333333335" width="105.28724626579853" height="2.7999999999999545"/><rect x="638.7140942167752" y="60.666666666666636" width="105.28724626579853" height="6.533333333333303"/></g><g id="Sem 23" fill="rgb(254, 232, 155)"><rect x="0.9986595174262902" y="377.06666666666666" width="105.28724626579853" height="1.8666666666666742"/><rect x="107.2845653006511" y="489.06666666666666" width="105.28724626579853" height="0"/><rect x="213.5704710838759" y="444.26666666666665" width="105.28724626579853" height="0.933333333333394"/><rect x="319.8563768671007" y="286.53333333333336" width="105.28724626579853" height="0"/><rect x="426.1422826503255" y="277.2" width="105.28724626579853" height="1.8666666666666742"/><rect x="532.4281884335503" y="70" width="105.28724626579853" height="0.933333333333394"/><rect x="638.7140942167752" y="60.666666666666636" width="105.28724626579853" height="0"/></g><g id="Sem 24" fill="rgb(254, 239, 164)"><rect x="0.9986595174262902" y="377.06666666666666" width="105.28724626579853" height="0"/><rect x="107.2845653006511" y="489.06666666666666" width="105.28724626579853" height="0"/><rect x="213.5704710838759" y="444.26666666666665" width="105.28724626579853" height="0"/><rect x="319.8563768671007" y="285.6" width="105.28724626579853" height="0.933333333333394"/><rect x="426.1422826503255" y="266.93333333333334" width="105.28724626579853" height="10.266666666666652"/><rect x="532.4281884335503" y="69.06666666666665" width="105.28724626579853" height="0.933333333333394"/><rect x="638.7140942167752" y="60.666666666666636" width="105.28724626579853" height="0"/></g><g id="Sem 25" fill="rgb(253, 243, 170)"><rect x="0.9986595174262902" y="377.06666666666666" width="105.28724626579853" height="0"/><rect x="107.2845653006511" y="483.46666666666664" width="105.28724626579853" height="5.600000000000023"/><rect x="213.5704710838759" y="442.40000000000003" width="105.28724626579853" height="1.8666666666666742"/><rect x="319.8563768671007" y="285.6" width="105.28724626579853" height="0"/><rect x="426.1422826503255" y="266" width="105.28724626579853" height="0.933333333333394"/><rect x="532.4281884335503" y="69.06666666666665" width="105.28724626579853" height="0"/><rect x="638.7140942167752" y="60.666666666666636" width="105.28724626579853" height="0"/></g><g id="Sem 26" fill="rgb(252, 247, 175)"><rect x="0.9986595174262902" y="375.19999999999993" width="105.28724626579853" height="1.8666666666666742"/><rect x="107.2845653006511" y="483.46666666666664" width="105.28724626579853" height="0"/><rect x="213.5704710838759" y="442.40000000000003" width="105.28724626579853" height="0"/><rect x="319.8563768671007" y="281.86666666666673" width="105.28724626579853" height="3.7333333333333485"/><rect x="426.1422826503255" y="265.0666666666667" width="105.28724626579853" height="0.933333333333394"/><rect x="532.4281884335503" y="69.06666666666665" width="105.28724626579853" height="0"/><rect x="638.7140942167752" y="60.666666666666636" width="105.28724626579853" height="0"/></g><g id="Sem 27" fill="rgb(249, 249, 176)"><rect x="0.9986595174262902" y="375.19999999999993" width="105.28724626579853" height="0"/><rect x="107.2845653006511" y="483.46666666666664" width="105.28724626579853" height="0"/><rect x="213.5704710838759" y="442.40000000000003" width="105.28724626579853" height="0"/><rect x="319.8563768671007" y="280" width="105.28724626579853" height="1.8666666666666742"/><rect x="426.1422826503255" y="265.0666666666667" width="105.28724626579853" height="0"/><rect x="532.4281884335503" y="69.06666666666665" width="105.28724626579853" height="0"/><rect x="638.7140942167752" y="57.866666666666696" width="105.28724626579853" height="2.7999999999999545"/></g><g id="Sem 28" fill="rgb(246, 250, 174)"><rect x="0.9986595174262902" y="375.19999999999993" width="105.28724626579853" height="0"/><rect x="107.2845653006511" y="483.46666666666664" width="105.28724626579853" height="0"/><rect x="213.5704710838759" y="442.40000000000003" width="105.28724626579853" height="0"/><rect x="319.8563768671007" y="280" width="105.28724626579853" height="0"/><rect x="426.1422826503255" y="265.0666666666667" width="105.28724626579853" height="0"/><rect x="532.4281884335503" y="64.39999999999999" width="105.28724626579853" height="4.666666666666629"/><rect x="638.7140942167752" y="57.866666666666696" width="105.28724626579853" height="0"/></g><g id="Sem 30" fill="rgb(242, 249, 171)"><rect x="0.9986595174262902" y="375.19999999999993" width="105.28724626579853" height="0"/><rect x="107.2845653006511" y="483.46666666666664" width="105.28724626579853" height="0"/><rect x="213.5704710838759" y="442.40000000000003" width="105.28724626579853" height="0"/><rect x="319.8563768671007" y="280" width="105.28724626579853" height="0"/><rect x="426.1422826503255" y="265.0666666666667" width="105.28724626579853" height="0"/><rect x="532.4281884335503" y="64.39999999999999" width="105.28724626579853" height="0"/><rect x="638.7140942167752" y="41.99999999999997" width="105.28724626579853" height="15.866666666666674"/></g><g id="Sem 31" fill="rgb(236, 247, 167)"><rect x="0.9986595174262902" y="371.46666666666664" width="105.28724626579853" height="3.7333333333333485"/><rect x="107.2845653006511" y="482.53333333333336" width="105.28724626579853" height="0.933333333333394"/><rect x="213.5704710838759" y="442.40000000000003" width="105.28724626579853" height="0"/><rect x="319.8563768671007" y="278.1333333333333" width="105.28724626579853" height="1.8666666666666742"/><rect x="426.1422826503255" y="262.2666666666667" width="105.28724626579853" height="2.7999999999999545"/><rect x="532.4281884335503" y="64.39999999999999" width="105.28724626579853" height="0"/><rect x="638.7140942167752" y="41.99999999999997" width="105.28724626579853" height="0"/></g><g id="Sem 32" fill="rgb(229, 245, 162)"><rect x="0.9986595174262902" y="370.5333333333333" width="105.28724626579853" height="0.933333333333394"/><rect x="107.2845653006511" y="482.53333333333336" width="105.28724626579853" height="0"/><rect x="213.5704710838759" y="441.46666666666664" width="105.28724626579853" height="0.933333333333394"/><rect x="319.8563768671007" y="277.2" width="105.28724626579853" height="0.933333333333394"/><rect x="426.1422826503255" y="261.3333333333333" width="105.28724626579853" height="0.933333333333394"/><rect x="532.4281884335503" y="64.39999999999999" width="105.28724626579853" height="0"/><rect x="638.7140942167752" y="41.99999999999997" width="105.28724626579853" height="0"/></g><g id="Sem 33" fill="rgb(221, 241, 160)"><rect x="0.9986595174262902" y="369.59999999999997" width="105.28724626579853" height="0.933333333333394"/><rect x="107.2845653006511" y="479.73333333333335" width="105.28724626579853" height="2.7999999999999545"/><rect x="213.5704710838759" y="439.6" width="105.28724626579853" height="1.8666666666666742"/><rect x="319.8563768671007" y="269.73333333333335" width="105.28724626579853" height="7.466666666666697"/><rect x="426.1422826503255" y="260.4" width="105.28724626579853" height="0.933333333333394"/><rect x="532.4281884335503" y="58.79999999999999" width="105.28724626579853" height="5.600000000000023"/><rect x="638.7140942167752" y="37.33333333333333" width="105.28724626579853" height="4.666666666666629"/></g><g id="Sem 34" fill="rgb(212, 238, 159)"><rect x="0.9986595174262902" y="358.40000000000003" width="105.28724626579853" height="11.200000000000045"/><rect x="107.2845653006511" y="476" width="105.28724626579853" height="3.7333333333333485"/><rect x="213.5704710838759" y="439.6" width="105.28724626579853" height="0"/><rect x="319.8563768671007" y="268.8" width="105.28724626579853" height="0.933333333333394"/><rect x="426.1422826503255" y="259.4666666666667" width="105.28724626579853" height="0.933333333333394"/><rect x="532.4281884335503" y="49.46666666666669" width="105.28724626579853" height="9.333333333333371"/><rect x="638.7140942167752" y="28.000000000000025" width="105.28724626579853" height="9.333333333333371"/></g><g id="Sem 35" fill="rgb(201, 233, 159)"><rect x="0.9986595174262902" y="350.93333333333334" width="105.28724626579853" height="7.466666666666697"/><rect x="107.2845653006511" y="474.1333333333333" width="105.28724626579853" height="1.8666666666666742"/><rect x="213.5704710838759" y="434.9333333333333" width="105.28724626579853" height="4.666666666666629"/><rect x="319.8563768671007" y="262.2666666666667" width="105.28724626579853" height="6.533333333333303"/><rect x="426.1422826503255" y="259.4666666666667" width="105.28724626579853" height="0"/><rect x="532.4281884335503" y="45.733333333333334" width="105.28724626579853" height="3.7333333333333485"/><rect x="638.7140942167752" y="27.06666666666667" width="105.28724626579853" height="0.933333333333394"/></g><g id="Sem 36" fill="rgb(190, 229, 160)"><rect x="0.9986595174262902" y="349.06666666666666" width="105.28724626579853" height="1.8666666666666742"/><rect x="107.2845653006511" y="474.1333333333333" width="105.28724626579853" height="0"/><rect x="213.5704710838759" y="434" width="105.28724626579853" height="0.933333333333394"/><rect x="319.8563768671007" y="261.3333333333333" width="105.28724626579853" height="0.933333333333394"/><rect x="426.1422826503255" y="259.4666666666667" width="105.28724626579853" height="0"/><rect x="532.4281884335503" y="45.733333333333334" width="105.28724626579853" height="0"/><rect x="638.7140942167752" y="26.133333333333315" width="105.28724626579853" height="0.933333333333394"/></g><g id="Sem 37" fill="rgb(178, 224, 161)"><rect x="0.9986595174262902" y="347.2" width="105.28724626579853" height="1.8666666666666742"/><rect x="107.2845653006511" y="474.1333333333333" width="105.28724626579853" height="0"/><rect x="213.5704710838759" y="434" width="105.28724626579853" height="0"/><rect x="319.8563768671007" y="261.3333333333333" width="105.28724626579853" height="0"/><rect x="426.1422826503255" y="210" width="105.28724626579853" height="49.4666666666667"/><rect x="532.4281884335503" y="27.06666666666667" width="105.28724626579853" height="18.66666666666663"/><rect x="638.7140942167752" y="25.200000000000024" width="105.28724626579853" height="0.933333333333394"/></g><g id="Sem 38" fill="rgb(166, 219, 163)"><rect x="0.9986595174262902" y="340.6666666666667" width="105.28724626579853" height="6.533333333333303"/><rect x="107.2845653006511" y="473.2" width="105.28724626579853" height="0.933333333333394"/><rect x="213.5704710838759" y="432.1333333333334" width="105.28724626579853" height="1.8666666666666742"/><rect x="319.8563768671007" y="260.4" width="105.28724626579853" height="0.933333333333394"/><rect x="426.1422826503255" y="209.06666666666663" width="105.28724626579853" height="0.933333333333394"/><rect x="532.4281884335503" y="23.333333333333314" width="105.28724626579853" height="3.7333333333333485"/><rect x="638.7140942167752" y="24.266666666666666" width="105.28724626579853" height="0.933333333333394"/></g><g id="xAxis" transform="translate(0,560)" fill="none" font-size="10" font-family="sans-serif" text-anchor="middle"><path class="domain" stroke="currentColor" d="M0,0H745"/><g class="tick" opacity="1" transform="translate(53.642282650325555,0)"><line stroke="currentColor" y2="6"/><text fill="currentColor" y="9" dy="0.71em">1. Lunes</text></g><g class="tick" opacity="1" transform="translate(159.92818843355036,0)"><line stroke="currentColor" y2="6"/><text fill="currentColor" y="9" dy="0.71em">2. Martes</text></g><g class="tick" opacity="1" transform="translate(266.21409421677515,0)"><line stroke="currentColor" y2="6"/><text fill="currentColor" y="9" dy="0.71em">3. Miércoles</text></g><g class="tick" opacity="1" transform="translate(372.5,0)"><line stroke="currentColor" y2="6"/><text fill="currentColor" y="9" dy="0.71em">4. Jueves</text></g><g class="tick" opacity="1" transform="translate(478.7859057832248,0)"><line stroke="currentColor" y2="6"/><text fill="currentColor" y="9" dy="0.71em">5. Viernes</text></g><g class="tick" opacity="1" transform="translate(585.0718115664496,0)"><line stroke="currentColor" y2="6"/><text fill="currentColor" y="9" dy="0.71em">6. Sábado</text></g><g class="tick" opacity="1" transform="translate(691.3577173496744,0)"><line stroke="currentColor" y2="6"/><text fill="currentColor" y="9" dy="0.71em">7. Domingo</text></g></g><g id="yAxis" fill="none" font-size="10" font-family="sans-serif" text-anchor="end"><path class="domain" stroke="currentColor" d="M0,560V0"/><g class="tick" opacity="1" transform="translate(0,560)"><line stroke="currentColor" x2="-6"/><text fill="currentColor" x="-9" dy="0.32em">0</text></g><g class="tick" opacity="1" transform="translate(0,513.3333333333333)"><line stroke="currentColor" x2="-6"/><text fill="currentColor" x="-9" dy="0.32em">50</text></g><g class="tick" opacity="1" transform="translate(0,466.6666666666667)"><line stroke="currentColor" x2="-6"/><text fill="currentColor" x="-9" dy="0.32em">100</text></g><g class="tick" opacity="1" transform="translate(0,420)"><line stroke="currentColor" x2="-6"/><text fill="currentColor" x="-9" dy="0.32em">150</text></g><g class="tick" opacity="1" transform="translate(0,373.33333333333337)"><line stroke="currentColor" x2="-6"/><text fill="currentColor" x="-9" dy="0.32em">200</text></g><g class="tick" opacity="1" transform="translate(0,326.66666666666663)"><line stroke="currentColor" x2="-6"/><text fill="currentColor" x="-9" dy="0.32em">250</text></g><g class="tick" opacity="1" transform="translate(0,280)"><line stroke="currentColor" x2="-6"/><text fill="currentColor" x="-9" dy="0.32em">300</text></g><g class="tick" opacity="1" transform="translate(0,233.33333333333331)"><line stroke="currentColor" x2="-6"/><text fill="currentColor" x="-9" dy="0.32em">350</text></g><g class="tick" opacity="1" transform="translate(0,186.66666666666669)"><line stroke="currentColor" x2="-6"/><text fill="currentColor" x="-9" dy="0.32em">400</text></g><g class="tick" opacity="1" transform="translate(0,140)"><line stroke="currentColor" x2="-6"/><text fill="currentColor" x="-9" dy="0.32em">450</text></g><g class="tick" opacity="1" transform="translate(0,93.33333333333331)"><line stroke="currentColor" x2="-6"/><text fill="currentColor" x="-9" dy="0.32em">500</text></g><g class="tick" opacity="1" transform="translate(0,46.666666666666686)"><line stroke="currentColor" x2="-6"/><text fill="currentColor" x="-9" dy="0.32em">550</text></g><g class="tick" opacity="1" transform="translate(0,0)"><line stroke="currentColor" x2="-6"/><text fill="currentColor" x="-9" dy="0.32em">600</text></g></g><text y="556" x="745" text-anchor="end" style="font-family: Arial, sans-serif; font-size: 12px; fill: rgb(123, 123, 123); font-weight: bold;">dia_semana</text></g><text x="4" y="4" style="font-family: Arial, sans-serif; font-size: 12px; fill: black; font-weight: bold; dominant-baseline: hanging;"/></g><g id="grid"><rect x="0" y="0" width="805" height="600" fill="none" stroke="#ccc"/></g></g></svg>